<mxfile host="Electron" modified="2023-10-06T01:14:44.119Z" agent="Mozilla/5.0 (Windows NT 10.0; Win64; x64) AppleWebKit/537.36 (KHTML, like Gecko) draw.io/21.7.5 Chrome/114.0.5735.289 Electron/25.8.1 Safari/537.36" etag="LT5CnPa9Y5TojGM5RHtV" version="21.7.5" type="device" pages="2">
  <diagram name="For Page Four" id="IED1Y6ghPdKSpXLMaqBD">
    <mxGraphModel dx="1050" dy="629" grid="1" gridSize="10" guides="1" tooltips="1" connect="1" arrows="1" fold="1" page="1" pageScale="1" pageWidth="850" pageHeight="1100" math="0" shadow="0">
      <root>
        <mxCell id="0" />
        <mxCell id="1" parent="0" />
        <mxCell id="5k0H6E7-5w1C9luWLKR8-8" value="" style="edgeStyle=orthogonalEdgeStyle;rounded=0;orthogonalLoop=1;jettySize=auto;html=1;" edge="1" parent="1" source="5k0H6E7-5w1C9luWLKR8-1" target="5k0H6E7-5w1C9luWLKR8-2">
          <mxGeometry relative="1" as="geometry" />
        </mxCell>
        <mxCell id="5k0H6E7-5w1C9luWLKR8-1" value="Energy Conversion" style="rounded=0;whiteSpace=wrap;html=1;" vertex="1" parent="1">
          <mxGeometry x="90" y="120" width="80" height="50" as="geometry" />
        </mxCell>
        <mxCell id="5k0H6E7-5w1C9luWLKR8-9" value="" style="edgeStyle=orthogonalEdgeStyle;rounded=0;orthogonalLoop=1;jettySize=auto;html=1;" edge="1" parent="1" source="5k0H6E7-5w1C9luWLKR8-2" target="5k0H6E7-5w1C9luWLKR8-5">
          <mxGeometry relative="1" as="geometry" />
        </mxCell>
        <mxCell id="5k0H6E7-5w1C9luWLKR8-11" value="" style="edgeStyle=orthogonalEdgeStyle;rounded=0;orthogonalLoop=1;jettySize=auto;html=1;" edge="1" parent="1" source="5k0H6E7-5w1C9luWLKR8-2" target="5k0H6E7-5w1C9luWLKR8-3">
          <mxGeometry relative="1" as="geometry" />
        </mxCell>
        <mxCell id="5k0H6E7-5w1C9luWLKR8-2" value="Power Reg/Comp" style="rounded=0;whiteSpace=wrap;html=1;" vertex="1" parent="1">
          <mxGeometry x="220" y="120" width="80" height="50" as="geometry" />
        </mxCell>
        <mxCell id="5k0H6E7-5w1C9luWLKR8-3" value="Dist &amp;amp; Protection" style="rounded=0;whiteSpace=wrap;html=1;" vertex="1" parent="1">
          <mxGeometry x="345" y="120" width="80" height="50" as="geometry" />
        </mxCell>
        <mxCell id="5k0H6E7-5w1C9luWLKR8-10" value="" style="edgeStyle=orthogonalEdgeStyle;rounded=0;orthogonalLoop=1;jettySize=auto;html=1;" edge="1" parent="1" source="5k0H6E7-5w1C9luWLKR8-5" target="5k0H6E7-5w1C9luWLKR8-2">
          <mxGeometry relative="1" as="geometry" />
        </mxCell>
        <mxCell id="5k0H6E7-5w1C9luWLKR8-5" value="Energy Storage" style="rounded=0;whiteSpace=wrap;html=1;" vertex="1" parent="1">
          <mxGeometry x="220" y="200" width="80" height="50" as="geometry" />
        </mxCell>
        <mxCell id="5k0H6E7-5w1C9luWLKR8-7" value="" style="edgeStyle=orthogonalEdgeStyle;rounded=0;orthogonalLoop=1;jettySize=auto;html=1;" edge="1" parent="1" source="5k0H6E7-5w1C9luWLKR8-6" target="5k0H6E7-5w1C9luWLKR8-1">
          <mxGeometry relative="1" as="geometry" />
        </mxCell>
        <mxCell id="5k0H6E7-5w1C9luWLKR8-6" value="Primary Energy Source" style="rounded=0;whiteSpace=wrap;html=1;" vertex="1" parent="1">
          <mxGeometry x="75" y="200" width="110" height="50" as="geometry" />
        </mxCell>
        <mxCell id="5k0H6E7-5w1C9luWLKR8-19" value="" style="edgeStyle=orthogonalEdgeStyle;rounded=0;orthogonalLoop=1;jettySize=auto;html=1;" edge="1" parent="1" source="5k0H6E7-5w1C9luWLKR8-12" target="5k0H6E7-5w1C9luWLKR8-13">
          <mxGeometry relative="1" as="geometry" />
        </mxCell>
        <mxCell id="5k0H6E7-5w1C9luWLKR8-12" value="Solar Cells" style="rounded=0;whiteSpace=wrap;html=1;" vertex="1" parent="1">
          <mxGeometry x="40" y="360" width="80" height="50" as="geometry" />
        </mxCell>
        <mxCell id="5k0H6E7-5w1C9luWLKR8-20" value="" style="edgeStyle=orthogonalEdgeStyle;rounded=0;orthogonalLoop=1;jettySize=auto;html=1;" edge="1" parent="1" source="5k0H6E7-5w1C9luWLKR8-13" target="5k0H6E7-5w1C9luWLKR8-14">
          <mxGeometry relative="1" as="geometry" />
        </mxCell>
        <mxCell id="5k0H6E7-5w1C9luWLKR8-13" value="MPPT" style="rounded=0;whiteSpace=wrap;html=1;" vertex="1" parent="1">
          <mxGeometry x="180" y="360" width="80" height="50" as="geometry" />
        </mxCell>
        <mxCell id="5k0H6E7-5w1C9luWLKR8-21" value="" style="edgeStyle=orthogonalEdgeStyle;rounded=0;orthogonalLoop=1;jettySize=auto;html=1;" edge="1" parent="1" source="5k0H6E7-5w1C9luWLKR8-14" target="5k0H6E7-5w1C9luWLKR8-16">
          <mxGeometry relative="1" as="geometry" />
        </mxCell>
        <mxCell id="5k0H6E7-5w1C9luWLKR8-14" value="BCR" style="rounded=0;whiteSpace=wrap;html=1;" vertex="1" parent="1">
          <mxGeometry x="320" y="360" width="80" height="50" as="geometry" />
        </mxCell>
        <mxCell id="5k0H6E7-5w1C9luWLKR8-23" style="edgeStyle=orthogonalEdgeStyle;rounded=0;orthogonalLoop=1;jettySize=auto;html=1;exitX=1;exitY=0.75;exitDx=0;exitDy=0;entryX=0;entryY=0.75;entryDx=0;entryDy=0;" edge="1" parent="1" source="5k0H6E7-5w1C9luWLKR8-15" target="5k0H6E7-5w1C9luWLKR8-16">
          <mxGeometry relative="1" as="geometry" />
        </mxCell>
        <mxCell id="5k0H6E7-5w1C9luWLKR8-15" value="Batteries" style="rounded=0;whiteSpace=wrap;html=1;" vertex="1" parent="1">
          <mxGeometry x="180" y="450" width="80" height="50" as="geometry" />
        </mxCell>
        <mxCell id="5k0H6E7-5w1C9luWLKR8-22" style="edgeStyle=orthogonalEdgeStyle;rounded=0;orthogonalLoop=1;jettySize=auto;html=1;entryX=1;entryY=0.25;entryDx=0;entryDy=0;exitX=0;exitY=0.25;exitDx=0;exitDy=0;" edge="1" parent="1" source="5k0H6E7-5w1C9luWLKR8-16" target="5k0H6E7-5w1C9luWLKR8-15">
          <mxGeometry relative="1" as="geometry" />
        </mxCell>
        <mxCell id="5k0H6E7-5w1C9luWLKR8-24" style="edgeStyle=orthogonalEdgeStyle;rounded=0;orthogonalLoop=1;jettySize=auto;html=1;entryX=0;entryY=0.5;entryDx=0;entryDy=0;" edge="1" parent="1" source="5k0H6E7-5w1C9luWLKR8-16" target="5k0H6E7-5w1C9luWLKR8-17">
          <mxGeometry relative="1" as="geometry" />
        </mxCell>
        <mxCell id="5k0H6E7-5w1C9luWLKR8-16" value="Protection Circuitry" style="rounded=0;whiteSpace=wrap;html=1;" vertex="1" parent="1">
          <mxGeometry x="320" y="450" width="80" height="50" as="geometry" />
        </mxCell>
        <mxCell id="5k0H6E7-5w1C9luWLKR8-25" value="" style="edgeStyle=orthogonalEdgeStyle;rounded=0;orthogonalLoop=1;jettySize=auto;html=1;" edge="1" parent="1" source="5k0H6E7-5w1C9luWLKR8-17" target="5k0H6E7-5w1C9luWLKR8-18">
          <mxGeometry relative="1" as="geometry" />
        </mxCell>
        <mxCell id="5k0H6E7-5w1C9luWLKR8-17" value="Regulation" style="rounded=0;whiteSpace=wrap;html=1;" vertex="1" parent="1">
          <mxGeometry x="460" y="450" width="80" height="50" as="geometry" />
        </mxCell>
        <mxCell id="5k0H6E7-5w1C9luWLKR8-18" value="Distribution" style="rounded=0;whiteSpace=wrap;html=1;" vertex="1" parent="1">
          <mxGeometry x="600" y="450" width="80" height="50" as="geometry" />
        </mxCell>
      </root>
    </mxGraphModel>
  </diagram>
  <diagram id="mLf2-BdoBSrakOrgIHEW" name="For Page Nine">
    <mxGraphModel dx="1050" dy="629" grid="1" gridSize="10" guides="1" tooltips="1" connect="1" arrows="1" fold="1" page="1" pageScale="1" pageWidth="850" pageHeight="1100" math="0" shadow="0">
      <root>
        <mxCell id="0" />
        <mxCell id="1" parent="0" />
        <mxCell id="dYVIHUmOuVZ4cHowWOy6-4" style="edgeStyle=orthogonalEdgeStyle;rounded=0;orthogonalLoop=1;jettySize=auto;html=1;exitX=1;exitY=0.5;exitDx=0;exitDy=0;entryX=0;entryY=0.75;entryDx=0;entryDy=0;entryPerimeter=0;" edge="1" parent="1" source="dYVIHUmOuVZ4cHowWOy6-1" target="dYVIHUmOuVZ4cHowWOy6-3">
          <mxGeometry relative="1" as="geometry" />
        </mxCell>
        <mxCell id="dYVIHUmOuVZ4cHowWOy6-10" value="Battery Voltage" style="edgeLabel;html=1;align=center;verticalAlign=middle;resizable=0;points=[];" vertex="1" connectable="0" parent="dYVIHUmOuVZ4cHowWOy6-4">
          <mxGeometry x="-0.29" y="-4" relative="1" as="geometry">
            <mxPoint as="offset" />
          </mxGeometry>
        </mxCell>
        <mxCell id="dYVIHUmOuVZ4cHowWOy6-1" value="" style="pointerEvents=1;verticalLabelPosition=bottom;shadow=0;dashed=0;align=center;html=1;verticalAlign=top;shape=mxgraph.electrical.miscellaneous.batteryStack;rotation=-90;" vertex="1" parent="1">
          <mxGeometry x="260" y="480" width="100" height="60" as="geometry" />
        </mxCell>
        <mxCell id="dYVIHUmOuVZ4cHowWOy6-5" style="edgeStyle=orthogonalEdgeStyle;rounded=0;orthogonalLoop=1;jettySize=auto;html=1;entryX=0;entryY=0.25;entryDx=0;entryDy=0;entryPerimeter=0;" edge="1" parent="1" source="dYVIHUmOuVZ4cHowWOy6-2" target="dYVIHUmOuVZ4cHowWOy6-3">
          <mxGeometry relative="1" as="geometry" />
        </mxCell>
        <mxCell id="dYVIHUmOuVZ4cHowWOy6-2" value="Regulated Voltage" style="rounded=0;whiteSpace=wrap;html=1;" vertex="1" parent="1">
          <mxGeometry x="140" y="330" width="120" height="60" as="geometry" />
        </mxCell>
        <mxCell id="dYVIHUmOuVZ4cHowWOy6-9" value="" style="edgeStyle=orthogonalEdgeStyle;rounded=0;orthogonalLoop=1;jettySize=auto;html=1;" edge="1" parent="1" source="dYVIHUmOuVZ4cHowWOy6-3" target="dYVIHUmOuVZ4cHowWOy6-7">
          <mxGeometry relative="1" as="geometry" />
        </mxCell>
        <mxCell id="dYVIHUmOuVZ4cHowWOy6-3" value="Comparator" style="shape=or;whiteSpace=wrap;html=1;" vertex="1" parent="1">
          <mxGeometry x="370" y="340" width="100" height="80" as="geometry" />
        </mxCell>
        <mxCell id="dYVIHUmOuVZ4cHowWOy6-7" value="Signal to switch" style="rounded=0;whiteSpace=wrap;html=1;" vertex="1" parent="1">
          <mxGeometry x="540" y="350" width="120" height="60" as="geometry" />
        </mxCell>
      </root>
    </mxGraphModel>
  </diagram>
</mxfile>
